<svg xmlns="http://www.w3.org/2000/svg" xmlns:xlink="http://www.w3.org/1999/xlink" width="78" height="85" viewBox="0 0 78 85"><defs><path id="onhta" d="M490.25 88.015c0-12.22 9.906-22.125 22.125-22.125 12.22 0 22.125 9.906 22.125 22.125 0 12.22-9.906 22.125-22.125 22.125-12.22 0-22.125-9.906-22.125-22.125z"/><path id="onhtb" d="M482 80.14c0-16.569 13.431-30 30-30 16.569 0 30 13.431 30 30 0 16.569-13.431 30-30 30-16.569 0-30-13.431-30-30z"/><path id="onhtj" d="M484.714 73.015h53.822"/><path id="onhtk" d="M484.714 88.765h53.822"/><path id="onhtl" d="M511.25 54.64s-9.962 11.578-9.747 26.25c.216 14.672 9.747 24.75 9.747 24.75"/><path id="onhtm" d="M512 54.64s9.962 11.578 9.747 26.25C521.53 95.562 512 105.64 512 105.64"/><path id="onhtc" d="M508.65 62.423c0-.896.727-1.623 1.623-1.623h4.917v10.92h14.96c.36 0 .65.29.65.65V82.5a.65.65 0 0 1-.65.65h-14.96v5.46h3.22c.36 0 .65.29.65.65v4.34a.65.65 0 0 1-.65.65h-3.22a1.623 1.623 0 0 1-1.623 1.6h-3.185c-.912 0-1.66-.705-1.727-1.6h-3.206a.65.65 0 0 1-.649-.65v-4.34c0-.36.29-.65.65-.65h3.2v-5.46h-14.87a.65.65 0 0 1-.65-.65V72.37c0-.36.29-.65.65-.65h14.87z"/><path id="onhto" d="M507.34 83.15V70.74h1.31v12.41z"/><path id="onhtp" d="M530.8 72.37a.65.65 0 0 0-.65-.65h-15.46v11.43h15.46a.65.65 0 0 0 .65-.65z"/><path id="onhtq" d="M519.06 93.6a.65.65 0 0 1-.65.65h-3.43V88.61h3.43c.36 0 .65.29.65.65z"/><path id="onhtr" d="M519.298 83.15h-4.338V71.72h4.338z"/><path id="onhts" d="M515.184 61.476v34.4s-1.815-.034-3.281-.034l-.053-.001c.76-1.122 2.026-3.534 2.026-6.581V65.445c0-2.646-1.203-3.989-1.687-4.625 1.353.228 2.995.656 2.995.656z"/><mask id="onhte" width="2" height="2" x="-1" y="-1"><path fill="#fff" d="M490 65h45v46h-45z"/><use xlink:href="#onhta"/></mask><filter id="onhtd" width="87" height="96" x="469" y="44" filterUnits="userSpaceOnUse"><feOffset dy="8" in="SourceGraphic" result="FeOffset1034Out"/><feGaussianBlur in="FeOffset1034Out" result="FeGaussianBlur1035Out" stdDeviation="4.4 4.4"/></filter><mask id="onhtg" width="2" height="2" x="-1" y="-1"><path fill="#fff" d="M482 50h60v61h-60z"/><use xlink:href="#onhtb"/></mask><filter id="onhtf" width="102" height="104" x="461" y="29" filterUnits="userSpaceOnUse"><feOffset dy="1" in="SourceGraphic" result="FeOffset1049Out"/><feGaussianBlur in="FeOffset1049Out" result="FeGaussianBlur1050Out" stdDeviation="4.4 4.4"/></filter><clipPath id="onhth"><use fill="#fff" xlink:href="#onhtb"/></clipPath><clipPath id="onhti"><use xlink:href="#onhtb"/></clipPath><clipPath id="onhtn"><use xlink:href="#onhtc"/></clipPath></defs><g><g transform="translate(-473 -42)"><g><g><g filter="url(#onhtd)"><use fill="none" stroke-opacity=".25" stroke-width="0" mask="url(&quot;#onhte&quot;)" xlink:href="#onhta"/><use fill="#37688e" fill-opacity=".25" xlink:href="#onhta"/></g></g><g><g filter="url(#onhtf)"><use fill="none" stroke-opacity=".3" stroke-width="0" mask="url(&quot;#onhtg&quot;)" xlink:href="#onhtb"/><use fill="#37688e" fill-opacity=".3" xlink:href="#onhtb"/></g><use fill="#2196f3" xlink:href="#onhtb"/><use fill="#fff" fill-opacity="0" stroke="#42a5f5" stroke-miterlimit="50" stroke-width="7.5" clip-path="url(&quot;#onhth&quot;)" xlink:href="#onhtb"/></g><g clip-path="url(#onhti)"><g><use fill="#fff" fill-opacity="0" stroke="#42a5f5" stroke-linecap="square" stroke-miterlimit="50" stroke-width="3.75" xlink:href="#onhtj"/></g><g><use fill="#fff" fill-opacity="0" stroke="#42a5f5" stroke-linecap="square" stroke-miterlimit="50" stroke-width="3.75" xlink:href="#onhtk"/></g><g><use fill="#fff" fill-opacity="0" stroke="#42a5f5" stroke-linecap="round" stroke-linejoin="round" stroke-miterlimit="50" stroke-width="3.75" xlink:href="#onhtl"/></g><g><use fill="#fff" fill-opacity="0" stroke="#42a5f5" stroke-linecap="round" stroke-linejoin="round" stroke-miterlimit="50" stroke-width="3.75" xlink:href="#onhtm"/></g></g></g><g><g transform="rotate(-300 512 80)"><g><use fill="#fff" xlink:href="#onhtc"/></g><g clip-path="url(#onhtn)"><use fill="#ebecf2" xlink:href="#onhto"/></g><g clip-path="url(#onhtn)"><use fill="#dee1e3" xlink:href="#onhtp"/></g><g clip-path="url(#onhtn)" opacity=".4"><use fill="#dee1e3" xlink:href="#onhtq"/></g><g clip-path="url(#onhtn)"><use fill="#c5c6cc" xlink:href="#onhtr"/></g><g clip-path="url(#onhtn)"><use fill="#dee1e3" xlink:href="#onhts"/></g></g></g></g></g></svg>